/* XPM */
static char *cactus1[] = {
/* columns rows colors chars-per-pixel */
"32 32 6 1 ",
"  c black",
". c #70F040",
"X c #6699FF",
"o c #60A0FF",
"O c #99CCFF",
"+ c white",
/* pixels */
"XXXXXXXXXXXXXXXXXXXXXXXXXXXXXXXX",
"XXXXXXXXXXXXXXXXXXXXXXXXXXXXXXXX",
"XXXXXXXX         XXXXXXXXXOOXXXX",
"XXXXXXXX         XXXXXXXXXOOXXXX",
"XXXXXX  ......ooo  XXXXXOOOOOOXX",
"XXXXXX  ......ooo  XXXXXOOOOOOXX",
"OOXX  ..........o  XOOOOOOXXOOOO",
"OOXX  ..........o  XOOOOOOXXOOOO",
"XXXX  ..  ..  ..ooo  XXXXXXXXXXX",
"XXXX  ..  ..  ..ooo  XXXXXXXXXXX",
"XX  ....  ..  ..ooo  XXXXXXXXXXX",
"XX  ....  ..  ..ooo  XXXXXXXXXXX",
"XX  ....  ..  ..o          XXXXX",
"XX  ....  ..  ..o          XXXXX",
"XX  ..........oo   ....oo    XXX",
"XX  ..........oo   ....oo    XXX",
"  ............oo ........oo  XXX",
"  ............oo ..  ..  oo  XXX",
"  ............oo ..  ..  oo  +XX",
"  ............oo ..  ..  oo  +XX",
"  ............oo ..  ..  oo  OOO",
"    ..........oo ........oo  OOO",
"    ..........oo ........oo  XXX",
"XX  .....................oo  XXX",
"XX  .....................oo  XXX",
"XX    ........  .......oooo  XXX",
"XX    ........  .......oooo  XXX",
"                 oooooooo      X",
"                 oooooooo      X",
"XXXXXXXXXX                   XXX",
"XXXXXXXXXX                   XXX",
"XXXXXXXXXXXXXXXXXXXXXXXXXXXXXXXX"
};
