/* XPM */
static char *cactus3[] = {
/* columns rows colors chars-per-pixel */
"32 32 6 1 ",
"  c black",
". c #70F040",
"X c #6699FF",
"o c #60A0FF",
"O c #99CCFF",
"+ c white",
/* pixels */
"XXXXXXXXXXXXXXXXXXXXXXXXXXXXXXXX",
"XXXXXXXXXXXXXXXXXXXXXXXXXXXXXXXX",
"XXXXXXXX         XXXXXXXXXOOXXXX",
"XXXXXXXX         XXXXXXXXXOOXXXX",
"XXXXXX  ......ooo  XXXXXOOOOOOXX",
"XXXXXX  ......ooo  XXXXXOOOOOOXX",
"OOXX  ..........ooo  OOOOOXXOOOO",
"OOXX  ..........ooo  OOOOOXXOOOO",
"XXXX  ..  ..  ..ooo  XXXXXXXXXXX",
"XXXX  ..  ..  ..ooo  XXXXXXXXXXX",
"XX  ....  ..  ..ooooo  XXXXXXXXX",
"XX  ....  ..  ..ooooo  XXXXXXXXX",
"XX  ....  ..  ..ooo      XXXXXXX",
"XX  ....  ..  ..ooo      XXXXXXX",
"XX  ..........ooo  ....oo  XXXXX",
"XX  ..........ooo  ....oo  XXXXX",
"XX  ..........oo ........oo  XXX",
"XX  ..........oo ..  ..  oo  XXX",
"XX  ..........oo ..  ..  oo  +XX",
"XX  ..........oo ..  ..  oo  +XX",
"OO  ..........oo ..  ..  oo  OOO",
"OOXX  ........oo ........oo  OOO",
"XXXX  ........oo ........oo  XXX",
"XXXX  ........oo.........oo  XXX",
"XXXX  ........oo.........oo  XXX",
"XXXXXX  ....oo  .......oooo  XXX",
"XXXXOO  ....oo  .......oooo  XXX",
"                 oooooooo      X",
"                 oooooooo      X",
"XXXXXXXXXX                   XXX",
"XXXXXXXXXX                   XXX",
"XXXXXXXXXXXXXXXXXXXXXXXXXXXXXXXX"
};
