/* XPM */
static char *cactus4[] = {
/* columns rows colors chars-per-pixel */
"32 32 6 1 ",
"  c black",
". c #70F040",
"X c #6699FF",
"o c #60A0FF",
"O c #99CCFF",
"+ c white",
/* pixels */
"XXXX        XXXXXXXXXXXXXXXXXXXX",
"XXXX        XXXXXXXXXXXXXXXXXXXX",
"XX  ......oo  XXXXXXXXXXXXOOXXXX",
"XX  ......oo  XXXXXXXXXXXXOOXXXX",
"  ........oo  XXXXXXXXXXOOOOOOXX",
"  ........oo  XXXXXXXXXXOOOOOOXX",
"  ..  ..  ..oo  XXXXOOOOOOXXOOOO",
"  ..  ..  ..oo  XXXXOOOOOOXXOOOO",
"  ..  ..  ..oo  XXXXXXXXXXXXXXXX",
"  ..  ..  ..oo  XXXXXXXXXXXXXXXX",
"  ..  ..  ..oooo     XXXXXXXXXXX",
"  ..  ..  ..oooo     XXXXXXXXXXX",
"  ..........oo  .....  XXXXXXXXX",
"  ..........oo  .....  XXXXXXXXX",
"  ..........  .. ..  oo  XXXXXXX",
"  ..........  .. ..  oo  XXXXXXX",
"  ..........  .. ..  oo  X++XXXX",
"  ..........  .........oo  +XXXX",
"  ..........  .........oo  O++XX",
"  ............  .......oo  O++XX",
"  ............  .......oo  XOOOO",
"OO  ..........  .........oo  OOO",
"XX  ..........  .........oo  XXX",
"XX  ............ ........oo  XXX",
"XX  ............ ........oo  XXX",
"XXXX  .................oooo  XXX",
"XXXX  .................oooo  XXX",
"                 oooooooo      X",
"                 oooooooo      X",
"XXXXXXXXXX                   XXX",
"XXXXXXXXXX                   XXX",
"XXXXXXXXXXXXXXXXXXXXXXXXXXXXXXXX"
};
