/* XPM */
static char *ground_blue[] = {
/* columns rows colors chars-per-pixel */
"32 32 3 1 ",
"  c #6699FF",
". c #99CCFF",
"X c #FFFFFF",
/* pixels */
"                                ",
"                                ",
"                          ..    ",
"                          ..    ",
"                        ......  ",
"                        ......  ",
"..                  ......  ....",
"..                  ......  ....",
"          XX                    ",
"          XX                    ",
"        XX..XX                  ",
"        XX..XX                  ",
"    ......  ......              ",
"    ......  ......              ",
"                                ",
"                                ",
"                          XX    ",
"                          XX    ",
"                        XX..XX  ",
"                        XX..XX  ",
"..                  ......  ....",
"..                  ......  ....",
"          ..                    ",
"          ..                    ",
"        ......                  ",
"        ......                  ",
"    ......  ......              ",
"    ......  ......              ",
"                                ",
"                                ",
"                                ",
"                                "
};
