/* XPM */
static char *home[] = {
/* columns rows colors chars-per-pixel */
"32 32 5 1 ",
"  c black",
". c #E05000",
"X c #6699FF",
"o c #99CCFF",
"O c #FFFFFF",
/* pixels */
"XXXXXXXXXXXX       XXXXXXXXXXXXX",
"XXXXXXXXXXXX       XXXXXXXXXXXXX",
"XXXXXXXX    .......    XXXooXXXX",
"XXXXXXXX    .......    XXXooXXXX",
"XXXXXX  ....    .......  oooooXX",
"XXXXXX  ....    .......  oooooXX",
"ooXX  ....       ........  Xoooo",
"ooXX  ....       ........  Xoooo",
"XXXX    ..       ........  XXXXX",
"XXXX    ..       ........  XXXXX",
"XX      ....    ...      ..  XXX",
"XX      ....    ...      ..  XXX",
"XX      .........            XXX",
"XX      .........            XXX",
"      ...........          ..  X",
"      ...........          ..  X",
"  ...............          ..  X",
"  ......                 ....  X",
"  ......                 ....  X",
"  ..      OOOOOOOOOOO      ..  X",
"  ..      OOOOOOOOOOO      ..  o",
"oo      OOOOOO   OOOOOO      ooo",
"XX      OOOOOO   OOOOOO      XXX",
"XXXXXX  OOOO       OOOO  XXXXXXX",
"XXXXXX  OOOO       OOOO  XXXXXXX",
"XXXXXX  OOOO       OOOO  XXXXXXX",
"XXXXoo  OOOO       OOOO  XXXXXXX",
"XXXXoo    OO       OO          X",
"XXXXXX    OO       OO          X",
"XXXXXXXX                     XXX",
"XXXXXXXX                     XXX",
"XXXXXXXXXXXXXXXXXXXXXXXXXXXXXXXX"
};
