/* XPM */
static char *home[] = {
/* columns rows colors chars-per-pixel */
"16 16 4 1 ",
"  c black",
". c #E05000",
"X c white",
"o c None",
/* pixels */
"oooooo    oooooo",
"oooo  ....  oooo",
"ooo ..  .... ooo",
"oo ..    .... oo",
"oo  .    .... oo",
"o   ..  ..   . o",
"o   .....      o",
"   ......     . ",
" ........     . ",
" ...         .. ",
" .   XXXXXX   . ",
"o   XXX  XXX   o",
"ooo XX    XX ooo",
"ooo XX    XX ooo",
"ooo  X    X     ",
"oooo           o"
};
