/* XPM */
static char *Mario1[] = {
/* columns rows colors chars-per-pixel */
"32 32 9 1 ",
"  c #202020",
". c #7B4C31",
"X c #E60013",
"o c #FFF208",
"O c #FFB66A",
"+ c #005DAC",
"@ c #6699FF",
"# c #99CCFF",
"$ c white",
/* pixels */
"@@@@@@@@@@@@@@XXXXX@@@@@@@@@@@@@",
"@@@@@@@@@@@@XXXXXX$@@@@@@@@@@@@@",
"@@@@@@@@@@@XXXXXX$$@@@@@@@##@@@@",
"@@@@@@@@@@@XXXXXXXXXXX@@@@##@@@@",
"@@@@@@@@@@@...OO OOO@@@@######@@",
"@@@@@@@@@@.OO.OO  OOOO@@######@@",
"##@@@@@@@@.OO..OOOOOOOO###@@####",
"##@@@@@@@..OO..OOO OOOO###@@####",
"@@@@@@@@@..OOOOO      @@@@@@@@@@",
"@@@@@@@@@...OOOOO     @@@@@@@@@@",
"@@@@@@@@$$#..OOOOOOOO@@@@@@@@@@@",
"@@@@@@@@$$##+OOOOOX@@@@@@@@@@@@@",
"@@@@######@@X+XXXX+X@@@@@@@@@@@@",
"@@@@######@XX+XXXX+XX@@@@@@@@@@@",
"@@@@@@@@@@XXX+XXXX+XXX@@@@@@@@@@",
"@@@@@@@@@XXXX+XXXX+XXXX@@@@@@@@@",
"@@@@@@@@@XXX++XXXX++XXX@@@$$@@@@",
"@@@@@@@@XXXX++XXXX++XXXX@@$$@@@@",
"@@@@@@@@XXXX++++++++XXXX$$##$$@@",
"@@@@@@@@XXXX+o++++o+XXXX$$##$$@@",
"##@@@@@@$$$$++++++++$$$$##@@####",
"##@@@@@@$$$$++++++++$$$$##@@####",
"@@@@@@@@@$$$++++++++$$$@@@@@@@@@",
"@@@@@@@@@$$++++++++++$$@@@@@@@@@",
"@@@@@@@@##++++++++++++@@@@@@@@@@",
"@@@@@@@@#++++++@@++++++@@@@@@@@@",
"@@@@#####+++++####+++++@@@@@@@@@",
"@@@@#####+++++####+++++@@@@@@@@@",
"@@@@@@@@@@....@@@@....@@@@@@@@@@",
"@@@@@@@@@@....@@@@....@@@@@@@@@@",
"@@@@@@@@......@@@@......@@@@@@@@",
"@@@@@@@@......@@@@......@@@@@@@@"
};
