/* XPM */
static char *Mario4[] = {
/* columns rows colors chars-per-pixel */
"32 32 8 1 ",
"  c #202020",
". c #E60013",
"X c #834829",
"o c #FFB66A",
"O c #005DAC",
"+ c #6699FF",
"@ c #99CCFF",
"# c white",
/* pixels */
"++++++++++++++++++++++++++++++++",
"++++++++++++++.....+++++++++++++",
"++++++++++++......#+++++++@@++++",
"+++++++++++......##+++++++@@++++",
"+++++++++++...........++@@@@@@++",
"+++++++++++XXXoo ooo++++@@@@@@++",
"@@++++++++XooXoo  oooo@@@@++@@@@",
"@@++++++++XooXXoooooooo@@@++@@@@",
"+++++++++XXooXXooo oooo+++++++++",
"+++++++++XXooooo      ++++++++++",
"++++++++##XXooooo     ++++++++++",
"++++++++##@XXoooooooo+++++++++++",
"++++@@@@@@++OOOOoo++++++++++++++",
"++++@@@@@@+.O..OO..+++++++++++++",
"++++++++++.O....OO.+++++++++++++",
"++++++++++.O....OO..++++++++++++",
"++++++++++.O....OOO.++++++##++++",
"++++++++++.O.....##.++++++##++++",
"++++++++++.O....####++++##@@##++",
"++++++++++OO....####O+++##@@##++",
"@@++++++++OOO...####OO@@@@++@@@@",
"@@++++++++OOOO..###OOO@@@@++@@@@",
"++++++++++OOOOOOXXOOOO++++++++++",
"++++++++++@OOOOOXXXOO+++++++++++",
"++++++++@@@@OOOXXXXXX+++++++++++",
"++++++++@@@@OOXXXXXX++++++++++++",
"++++@@@@@@++@OOXXXX+++++++++++++",
"++++@@@@@@++@XOOOXXX++++++++++++",
"+++++++++++++XXXX+XX++++++++++++",
"++++++++++++XXXXX+++++++++++++++",
"++++++++++++XXXXXXX+++++++++++++",
"++++++++++++++XXXXX+++++++++++++"
};
