/* XPM */
static char *Mario2[] = {
/* columns rows colors chars-per-pixel */
"32 32 9 1 ",
"  c #202020",
". c #E60013",
"X c #834829",
"o c #FFF208",
"O c #FFB66A",
"+ c #005DAC",
"@ c #6699FF",
"# c #99CCFF",
"$ c white",
/* pixels */
"@@@@@@@@@@@@@@.....@@@@@@@@@@@@@",
"@@@@@@@@@@@@......$@@@@@@@@@@@@@",
"@@@@@@@@@@@......$$@@@@@@@##@@@@",
"@@@@@@@@@@@...........@@@@##@@@@",
"@@@@@@@@@@@XXXOO OOO@@@@######@@",
"@@@@@@@@@@XOOXOO  OOOO@@######@@",
"##@@@@@@@@XOOXXOOOOOOOO###@@####",
"##@@@@@@@XXOOXXOOO OOOO###@@####",
"@@@@@@@@@XXOOOOO      @@@@@@@@@@",
"@@@@@@@@@XXXOOOOO     @@@@@@@@@@",
"@@@@@@@@$$#XXOOOOOOOO@@@@@@@@@@@",
"@@@@@@@@$$##$...OO@@@@@@@@@@@@@@",
"@@@@######@@++++..+@@@$@@@@@@@@@",
"@@@@######@....++..+@$$$@@@@@@@@",
"@@@@@@@@@@......++.+.$$$@@@@@@@@",
"@@@@@@@@@.......++..+$$$@@@@@@@@",
"@@@@@@@@@.......++..+.$.@@$$@@@@",
"@@@@@@@@@......+++..+..@@@$$@@@@",
"@@@@@@@@......+++o+.o.@@$$##$$@@",
"@@@@@@@@....+++++++++@@@$$##$$@@",
"##@@@@@@$$$$$++++++++#####@@####",
"##@@@@@@$$$$$++++++++##X##@@####",
"@@@@@@@@$$$$+++++++++@XX@@@@@@@@",
"@@@@@@@@@$$$+++++++XXXXX@@@@@@@@",
"@@@@@@@@###+X++++++XXXXX@@@@@@@@",
"@@@@@@@@##X++X+++++XXXXX@@@@@@@@",
"@@@@####XXX+++XX+++XXXXX@@@@@@@@",
"@@@@####XXXX++++##@XXXXX@@@@@@@@",
"@@@@@@@@XXXXX+@@@@@@@@@@@@@@@@@@",
"@@@@@@@@@XXX@@@@@@@@@@@@@@@@@@@@",
"@@@@@@@@@XXX@@@@@@@@@@@@@@@@@@@@",
"@@@@@@@@@@XXX@@@@@@@@@@@@@@@@@@@"
};
