/* XPM */
static char *Mario3[] = {
/* columns rows colors chars-per-pixel */
"32 32 8 1 ",
"  c #202020",
". c #E60013",
"X c #834C31",
"o c #FFB66A",
"O c #005DAC",
"+ c #6699FF",
"@ c #99CCFF",
"# c white",
/* pixels */
"++++++++++++++++++++++++++++++++",
"++++++++++++++++++++++++++++++++",
"++++++++++++++.....+++++++@@++++",
"++++++++++++......#+++++++@@++++",
"+++++++++++......##+++++@@@@@@++",
"+++++++++++...........++@@@@@@++",
"@@+++++++++XXXoo ooo@@@@@@++@@@@",
"@@++++++++XooXoo  oooo@@@@++@@@@",
"++++++++++XooXXoooooooo+++++++++",
"+++++++++XXooXXooo oooo+++++++++",
"++++++++#XXooooo      ++++++++++",
"++++++++##XXooooo     ++++++++++",
"++++@@@@@@++.oooooooo+++++++++++",
"++++@@@@@@+.OOOooo++++++++++++++",
"++++++++++.O...O.+++++++++++++++",
"++++++++++.O....O.++++++++++++++",
"+++++++++..O.....OO##+++++##++++",
"+++++++++.OO.......####+++##++++",
"+++++++++.OOO......####+##@@##++",
"++++++++++OOO.......###+##@@##++",
"@@++++++++OOOO......###@@@++@@@@",
"@@++++++++OOOOOO...O@@@@@@++@@@@",
"++++++++++OOOOOOOOOO++++++++++++",
"++++++++++OOOOOOOOOX++++++++++++",
"+++++++XXXXOOOOOOOXOO+++++++++++",
"+++++++XXXXOOOOOXXOOO+++++++++++",
"++++@@@XXXXOOOOXOOOO++++++++++++",
"++++@@@XXXXOOO@@OOOO++++++++++++",
"+++++++XXXX+++++XXXX++++++++++++",
"+++++++XX+++++++XXXX++++++++++++",
"+++++++X++++++++XXXXXX++++++++++",
"++++++++++++++++XXXXXX++++++++++"
};
