/* XPM */
static char *star[] = {
/* columns rows colors chars-per-pixel */
"32 32 5 1 ",
"  c black",
". c #FBF236",
"X c #6699FF",
"o c #99CCFF",
"O c white",
/* pixels */
"XXXXXXXXXXXXXX    XXXXXXXXXXXXXX",
"XXXXXXXXXXXXXX    XXXXXXXXXXXXXX",
"XXXXXXXXXXXX  ....  XXXXXXooXXXX",
"XXXXXXXXXXXX  ....  XXXXXXooXXXX",
"XXXXXXXXXXXX  ....  XXXXooooooXX",
"XXXXXXXXXXXX  ....  XXXXooooooXX",
"ooXXXXXXXX    ....    ooooXXoooo",
"ooXXXXXXXX    ....    ooooXXoooo",
"XXXXXXXXXX  ........  XXXXXXXXXX",
"XXXXXXXXXX  ........  XXXXXXXXXX",
"            ........            ",
"            ........            ",
"  ............................  ",
"  ............................  ",
"    ........  ....  ........    ",
"    ........  ....  ........    ",
"XXXX    ....  ....  ....    XXXX",
"XXXX    ....  ....  ....    XXXX",
"XXXXXX    ..  ....  ..    ooOOXX",
"XXXXXX    ..  ....  ..    ooOOXX",
"ooXXXX  ................  XXoooo",
"ooXXXX  ................  XXoooo",
"XXXX    ................    XXXX",
"XXXX    ................    XXXX",
"XXXX  ........    ........  XXXX",
"XXXX  ........    ........  XXXX",
"XX    ......  oooo  ......    XX",
"XX    ......  oooo  ......    XX",
"XX  ....    XXXXXXXX    ....  XX",
"XX  ....    XXXXXXXX    ....  XX",
"XX        XXXXXXXXXXXX        XX",
"XX        XXXXXXXXXXXX        XX"
};
