/* XPM */
static char *tile[] = {
/* columns rows colors chars-per-pixel */
"32 32 2 1 ",
"  c black",
". c #BF4D15",
/* pixels */
"                                ",
"                                ",
"  ..............  ..............",
"  ..............  ..............",
"  ..............  ..............",
"  ..............  ..............",
"  ..............  ..............",
"  ..............  ..............",
"                                ",
"                                ",
"........  ............  ........",
"........  ............  ........",
"........  ............  ........",
"........  ............  ........",
"........  ............  ........",
"........  ............  ........",
"                                ",
"                                ",
"  ..............  ..............",
"  ..............  ..............",
"  ..............  ..............",
"  ..............  ..............",
"  ..............  ..............",
"  ..............  ..............",
"                                ",
"                                ",
"........  ............  ........",
"........  ............  ........",
"........  ............  ........",
"........  ............  ........",
"........  ............  ........",
"........  ............  ........"
};
